<?xml version="1.0" encoding="UTF-8"?>
<!DOCTYPE svg PUBLIC "-//W3C//DTD SVG 1.1//EN" "http://www.w3.org/Graphics/SVG/1.1/DTD/svg11.dtd">
<svg version="1.1" xmlns="http://www.w3.org/2000/svg" xmlns:xlink="http://www.w3.org/1999/xlink" x="0" y="0" width="150" height="150" viewBox="0, 0, 150, 150">
  <g id="Layer_1">
    <path d="M23.5,12.5 L126.5,12.5 C133.127,12.5 138.5,17.873 138.5,24.5 L138.5,127.5 C138.5,134.127 133.127,139.5 126.5,139.5 L23.5,139.5 C16.873,139.5 11.5,134.127 11.5,127.5 L11.5,24.5 C11.5,17.873 16.873,12.5 23.5,12.5 z" fill-opacity="0" stroke="#FF851B" stroke-width="4"/>
    <g>
      <path d="M75,72.5 C65.887,72.5 58.5,65.113 58.5,56 C58.5,46.887 65.887,39.5 75,39.5 C84.113,39.5 91.5,46.887 91.5,56 C91.5,65.113 84.113,72.5 75,72.5 z" fill="#FF4136"/>
      <path d="M75,72.5 C65.887,72.5 58.5,65.113 58.5,56 C58.5,46.887 65.887,39.5 75,39.5 C84.113,39.5 91.5,46.887 91.5,56 C91.5,65.113 84.113,72.5 75,72.5 z" fill-opacity="0" stroke="#FF4136" stroke-width="4"/>
    </g>
    <g>
      <path d="M69.5,63.5 L80.5,63.5 L92.5,112.5 L59.5,112.5 L69.5,63.5 z" fill="#FF4136"/>
      <path d="M69.5,63.5 L80.5,63.5 L92.5,112.5 L59.5,112.5 L69.5,63.5 z" fill-opacity="0" stroke="#FF4136" stroke-width="4"/>
    </g>
  </g>
</svg>
